<svg width="1046" height="104" viewBox="0 0 1046 104" fill="none" xmlns="http://www.w3.org/2000/svg">
<g clip-path="url(#clip0_1089_50)">
<path d="M171.291 79.397C171.144 79.397 171.071 79.177 171.071 78.737C171.071 78.297 171.144 78.077 171.291 78.077C173.271 78.077 174.738 77.8936 175.691 77.527C176.718 77.087 177.414 76.3536 177.781 75.327C178.148 74.3003 178.331 72.687 178.331 70.487V49.917C178.331 47.277 178.038 45.3703 177.451 44.197C176.938 43.0236 176.021 42.437 174.701 42.437C173.381 42.437 171.731 42.9503 169.751 43.977H169.641C169.348 43.977 169.128 43.7936 168.981 43.427C168.834 43.0603 168.871 42.8036 169.091 42.657L183.391 36.057L183.831 35.947C183.978 35.947 184.161 36.057 184.381 36.277C184.601 36.4236 184.711 36.607 184.711 36.827C184.711 37.3403 184.674 38.807 184.601 41.227C184.528 43.647 184.491 46.507 184.491 49.807V70.487C184.491 72.687 184.674 74.3003 185.041 75.327C185.408 76.3536 186.068 77.087 187.021 77.527C187.974 77.8936 189.441 78.077 191.421 78.077C191.641 78.077 191.751 78.297 191.751 78.737C191.751 79.177 191.641 79.397 191.421 79.397C189.734 79.397 188.378 79.3603 187.351 79.287L181.411 79.177L175.471 79.287C174.444 79.3603 173.051 79.397 171.291 79.397ZM180.531 23.077C179.064 23.077 177.891 22.6736 177.011 21.867C176.131 21.0603 175.691 19.9236 175.691 18.457C175.691 16.9903 176.131 15.8536 177.011 15.047C177.891 14.2403 179.064 13.837 180.531 13.837C181.998 13.837 183.134 14.2403 183.941 15.047C184.748 15.8536 185.151 16.9903 185.151 18.457C185.151 19.9236 184.748 21.0603 183.941 21.867C183.134 22.6736 181.998 23.077 180.531 23.077ZM201.039 43.647C201.039 46.2136 201.882 48.267 203.569 49.807C205.256 51.2736 207.749 52.8503 211.049 54.537C213.616 55.857 215.596 56.9936 216.989 57.947C218.456 58.9003 219.702 60.147 220.729 61.687C221.756 63.227 222.269 65.097 222.269 67.297C222.269 71.037 220.876 74.1903 218.089 76.757C215.302 79.3236 211.526 80.607 206.759 80.607C202.872 80.607 199.352 79.507 196.199 77.307C195.759 77.0136 195.539 76.5736 195.539 75.987L195.319 67.407C195.319 67.187 195.502 67.077 195.869 67.077C196.309 67.0036 196.566 67.077 196.639 67.297C198.032 71.037 199.829 73.8603 202.029 75.767C204.302 77.6003 206.906 78.517 209.839 78.517C212.112 78.517 213.872 78.0036 215.119 76.977C216.439 75.877 217.099 74.2636 217.099 72.137C217.099 70.0836 216.622 68.3603 215.669 66.967C214.789 65.5003 213.689 64.3636 212.369 63.557C211.049 62.677 209.252 61.6503 206.979 60.477C204.559 59.3036 202.616 58.2403 201.149 57.287C199.756 56.3336 198.546 55.087 197.519 53.547C196.566 52.007 196.089 50.1003 196.089 47.827C196.089 43.867 197.556 40.8603 200.489 38.807C203.496 36.6803 207.016 35.617 211.049 35.617C213.982 35.617 216.659 36.167 219.079 37.267C219.519 37.4136 219.776 37.597 219.849 37.817C219.996 37.9636 220.069 38.1836 220.069 38.477C220.069 39.9436 220.032 41.0803 219.959 41.887L219.849 46.507C219.849 46.6536 219.629 46.727 219.189 46.727C218.749 46.727 218.529 46.6536 218.529 46.507C218.529 44.1603 217.282 42.107 214.789 40.347C212.369 38.587 209.802 37.707 207.089 37.707C205.182 37.707 203.679 38.2203 202.579 39.247C201.552 40.2003 201.039 41.667 201.039 43.647ZM276.528 80.057C276.235 80.2036 275.942 80.277 275.648 80.277C274.548 80.277 273.595 79.4336 272.788 77.747C271.982 76.0603 271.578 73.8236 271.578 71.037V50.247C271.578 42.0336 269.268 37.927 264.648 37.927C262.155 37.927 260.248 38.7703 258.928 40.457C257.682 42.0703 256.838 43.9403 256.398 46.067C256.105 47.4603 255.665 48.5603 255.078 49.367C254.565 50.1736 253.612 50.577 252.218 50.577C251.045 50.577 250.128 50.247 249.468 49.587C248.882 48.927 248.588 48.157 248.588 47.277C248.588 45.517 249.725 43.757 251.998 41.997C254.272 40.237 256.985 38.7703 260.138 37.597C263.292 36.4236 266.115 35.837 268.608 35.837C271.615 35.837 273.888 36.7903 275.428 38.697C276.968 40.6036 277.738 43.3536 277.738 46.947V67.517C277.738 70.0836 278.068 71.9536 278.728 73.127C279.388 74.3003 280.452 74.887 281.918 74.887C283.385 74.887 285.218 74.4103 287.418 73.457H287.638C287.932 73.457 288.115 73.6403 288.188 74.007C288.262 74.3003 288.152 74.5203 287.858 74.667L276.528 80.057ZM256.728 80.167C254.015 80.167 251.888 79.4703 250.348 78.077C248.882 76.6103 248.148 74.777 248.148 72.577C248.148 70.377 249.028 68.4703 250.788 66.857C252.548 65.2436 255.445 63.7036 259.478 62.237L272.678 57.287L273.008 58.717L261.348 63.227C259.295 64.0336 257.792 64.987 256.838 66.087C255.958 67.1136 255.518 68.3603 255.518 69.827C255.518 71.587 256.068 73.0903 257.168 74.337C258.342 75.5103 259.845 76.097 261.678 76.097C263.145 76.097 264.905 75.5103 266.958 74.337L273.888 70.157L274.108 71.587L265.968 76.867C264.135 78.0403 262.522 78.8836 261.128 79.397C259.735 79.9103 258.268 80.167 256.728 80.167ZM308.554 12.897H315.964V38.642C319.447 34.3353 324.324 32.182 330.594 32.182C336.104 32.182 340.315 33.6703 343.229 36.647C346.205 39.6236 347.694 43.8986 347.694 49.472V79.397H340.284V51.372C340.284 42.9486 336.705 38.737 329.549 38.737C325.369 38.737 322.044 40.162 319.574 43.012C317.167 45.862 315.964 49.757 315.964 54.697V79.397H308.554V12.897ZM356.17 33.702H363.77V79.397H356.17V33.702ZM355.98 20.117H363.77V28.002H355.98V20.117ZM391.168 32.372C394.398 32.372 397.375 33.037 400.098 34.367C402.821 35.697 405.101 37.692 406.938 40.352V33.607H414.633V78.732C414.633 82.4053 414.095 85.762 413.018 88.802C412.005 91.842 410.485 94.4386 408.458 96.592C406.495 98.7453 404.088 100.392 401.238 101.532C398.451 102.735 395.253 103.337 391.643 103.337C388.856 103.337 386.196 102.957 383.663 102.197C381.193 101.5 378.945 100.424 376.918 98.967C374.955 97.5736 373.308 95.832 371.978 93.742C370.711 91.652 369.92 89.2136 369.603 86.427L377.298 85.287C377.995 88.8336 379.578 91.557 382.048 93.457C384.518 95.357 387.558 96.307 391.168 96.307C393.701 96.307 395.95 95.8636 397.913 94.977C399.876 94.0903 401.523 92.8553 402.853 91.272C404.183 89.752 405.196 87.9153 405.893 85.762C406.59 83.672 406.938 81.4236 406.938 79.017V70.562C405.101 73.222 402.821 75.217 400.098 76.547C397.375 77.8136 394.398 78.447 391.168 78.447C388.001 78.447 385.088 77.8453 382.428 76.642C379.768 75.4386 377.456 73.792 375.493 71.702C373.593 69.612 372.105 67.1736 371.028 64.387C369.951 61.6003 369.413 58.6553 369.413 55.552C369.413 52.3853 369.951 49.4086 371.028 46.622C372.105 43.8353 373.593 41.397 375.493 39.307C377.393 37.1536 379.673 35.4753 382.333 34.272C384.993 33.0053 387.938 32.372 391.168 32.372ZM391.453 71.132C393.86 71.132 396.013 70.752 397.913 69.992C399.813 69.1686 401.428 68.0603 402.758 66.667C404.088 65.2736 405.101 63.6586 405.798 61.822C406.558 59.922 406.938 57.8953 406.938 55.742C406.938 53.5253 406.558 51.467 405.798 49.567C405.101 47.6036 404.056 45.8936 402.663 44.437C401.333 42.9803 399.718 41.8403 397.818 41.017C395.918 40.1303 393.796 39.687 391.453 39.687C389.173 39.687 387.115 40.0986 385.278 40.922C383.505 41.7453 381.985 42.8853 380.718 44.342C379.515 45.7986 378.565 47.5086 377.868 49.472C377.235 51.4353 376.918 53.5253 376.918 55.742C376.918 57.8953 377.235 59.922 377.868 61.822C378.501 63.6586 379.42 65.2736 380.623 66.667C381.826 68.0603 383.346 69.1686 385.183 69.992C387.02 70.752 389.11 71.132 391.453 71.132ZM421.032 12.897H428.442V38.642C431.925 34.3353 436.802 32.182 443.072 32.182C448.582 32.182 452.794 33.6703 455.707 36.647C458.684 39.6236 460.172 43.8986 460.172 49.472V79.397H452.762V51.372C452.762 42.9486 449.184 38.737 442.027 38.737C437.847 38.737 434.522 40.162 432.052 43.012C429.645 45.862 428.442 49.757 428.442 54.697V79.397H421.032V12.897ZM466.274 42.822H493.634V49.852H466.274V42.822ZM504.134 33.607V28.287C504.134 25.6903 504.546 23.3153 505.369 21.162C506.256 18.9453 507.459 17.077 508.979 15.557C510.499 13.9736 512.336 12.7703 514.489 11.947C516.642 11.0603 519.017 10.617 521.614 10.617C524.527 10.617 526.966 11.187 528.929 12.327C530.892 13.4036 532.539 14.9553 533.869 16.982L527.789 20.782C526.776 19.5786 525.857 18.7236 525.034 18.217C524.274 17.647 523.134 17.362 521.614 17.362C518.574 17.362 516.136 18.312 514.299 20.212C512.526 22.0486 511.639 24.582 511.639 27.812V33.607H529.499V40.257H511.639V79.492H504.134V40.257H495.489V33.607H504.134ZM542.312 33.702V38.832C543.769 36.4253 545.415 34.7153 547.252 33.702C549.089 32.6253 551.052 32.087 553.142 32.087C555.169 32.087 557.449 32.5936 559.982 33.607L558.652 40.732C556.815 40.0986 555.074 39.782 553.427 39.782C550.007 39.782 547.284 41.0486 545.257 43.582C543.294 46.1153 542.312 49.6303 542.312 54.127V79.397H534.902V33.702H542.312ZM603.893 52.702V57.737H568.078C568.395 62.7403 570.041 66.7303 573.018 69.707C576.058 72.6836 580.175 74.172 585.368 74.172C586.825 74.172 588.091 74.0453 589.168 73.792C590.308 73.5386 591.321 73.127 592.208 72.557C593.095 71.987 593.918 71.2586 594.678 70.372C595.438 69.4853 596.198 68.4403 596.958 67.237L604.273 69.422C601.93 73.412 599.301 76.3886 596.388 78.352C593.475 80.252 589.706 81.202 585.083 81.202C581.346 81.202 577.958 80.6003 574.918 79.397C571.941 78.1303 569.376 76.4203 567.223 74.267C565.133 72.1136 563.518 69.5486 562.378 66.572C561.238 63.532 560.668 60.2703 560.668 56.787C560.668 53.3036 561.206 50.0736 562.283 47.097C563.423 44.1203 564.975 41.5236 566.938 39.307C568.965 37.0903 571.371 35.3486 574.158 34.082C576.945 32.8153 580.016 32.182 583.373 32.182C586.476 32.182 589.263 32.7203 591.733 33.797C594.266 34.8736 596.42 36.3303 598.193 38.167C600.03 40.0036 601.423 42.1886 602.373 44.722C603.386 47.192 603.893 49.852 603.893 52.702ZM596.483 51.182C596.356 47.6353 595.09 44.722 592.683 42.442C590.34 40.162 587.236 39.022 583.373 39.022C579.573 39.022 576.375 40.1303 573.778 42.347C571.181 44.5636 569.408 47.5086 568.458 51.182H596.483ZM631.461 32.182C638.175 32.182 643.463 34.6836 647.326 39.687V33.702H654.736V101.627H647.326V73.127C643.273 78.3203 637.89 80.917 631.176 80.917C627.883 80.917 624.811 80.3153 621.961 79.112C619.175 77.9086 616.768 76.2303 614.741 74.077C612.715 71.9236 611.131 69.3586 609.991 66.382C608.851 63.342 608.281 60.0486 608.281 56.502C608.281 52.9553 608.851 49.6936 609.991 46.717C611.131 43.7403 612.715 41.1753 614.741 39.022C616.831 36.8686 619.301 35.1903 622.151 33.987C625.001 32.7836 628.105 32.182 631.461 32.182ZM615.691 56.597C615.691 59.1303 616.071 61.4736 616.831 63.627C617.655 65.717 618.731 67.522 620.061 69.042C621.455 70.562 623.101 71.7653 625.001 72.652C626.965 73.4753 629.086 73.887 631.366 73.887C633.646 73.887 635.768 73.4753 637.731 72.652C639.695 71.7653 641.373 70.562 642.766 69.042C644.223 67.4586 645.331 65.622 646.091 63.532C646.915 61.3786 647.326 59.067 647.326 56.597C647.326 54.127 646.915 51.847 646.091 49.757C645.331 47.6036 644.223 45.767 642.766 44.247C641.373 42.6636 639.695 41.4286 637.731 40.542C635.831 39.6553 633.741 39.212 631.461 39.212C629.181 39.212 627.06 39.6553 625.096 40.542C623.196 41.3653 621.55 42.5686 620.156 44.152C618.763 45.672 617.655 47.5086 616.831 49.662C616.071 51.752 615.691 54.0636 615.691 56.597ZM661.202 63.532V33.702H668.612V61.727C668.612 65.8436 669.498 68.9786 671.272 71.132C673.045 73.2853 675.642 74.362 679.062 74.362C681.088 74.362 682.957 73.982 684.667 73.222C686.377 72.3986 687.833 71.2903 689.037 69.897C690.303 68.5036 691.253 66.8253 691.887 64.862C692.583 62.8986 692.932 60.7453 692.932 58.402V33.702H700.342V79.397H692.932V74.647C690.968 77.0536 688.91 78.7003 686.757 79.587C684.603 80.4736 682.292 80.917 679.822 80.917C677.035 80.917 674.47 80.4736 672.127 79.587C669.847 78.7636 667.883 77.592 666.237 76.072C664.653 74.4886 663.418 72.652 662.532 70.562C661.645 68.4086 661.202 66.0653 661.202 63.532ZM748.842 52.702V57.737H713.027C713.344 62.7403 714.99 66.7303 717.967 69.707C721.007 72.6836 725.124 74.172 730.317 74.172C731.774 74.172 733.04 74.0453 734.117 73.792C735.257 73.5386 736.27 73.127 737.157 72.557C738.044 71.987 738.867 71.2586 739.627 70.372C740.387 69.4853 741.147 68.4403 741.907 67.237L749.222 69.422C746.879 73.412 744.25 76.3886 741.337 78.352C738.424 80.252 734.655 81.202 730.032 81.202C726.295 81.202 722.907 80.6003 719.867 79.397C716.89 78.1303 714.325 76.4203 712.172 74.267C710.082 72.1136 708.467 69.5486 707.327 66.572C706.187 63.532 705.617 60.2703 705.617 56.787C705.617 53.3036 706.155 50.0736 707.232 47.097C708.372 44.1203 709.924 41.5236 711.887 39.307C713.914 37.0903 716.32 35.3486 719.107 34.082C721.894 32.8153 724.965 32.182 728.322 32.182C731.425 32.182 734.212 32.7203 736.682 33.797C739.215 34.8736 741.369 36.3303 743.142 38.167C744.979 40.0036 746.372 42.1886 747.322 44.722C748.335 47.192 748.842 49.852 748.842 52.702ZM741.432 51.182C741.305 47.6353 740.039 44.722 737.632 42.442C735.289 40.162 732.185 39.022 728.322 39.022C724.522 39.022 721.324 40.1303 718.727 42.347C716.13 44.5636 714.357 47.5086 713.407 51.182H741.432ZM756.723 33.702H764.133V39.117C765.97 36.9003 768.092 35.1903 770.498 33.987C772.968 32.7836 775.818 32.182 779.048 32.182C784.178 32.182 788.263 33.7336 791.303 36.837C794.343 39.877 795.863 44.0886 795.863 49.472V79.397H788.453V51.372C788.453 42.9486 784.875 38.737 777.718 38.737C773.538 38.737 770.213 40.162 767.743 43.012C765.337 45.862 764.133 49.757 764.133 54.697V79.397H756.723V33.702ZM824.365 80.917C821.072 80.917 818.032 80.2836 815.245 79.017C812.522 77.687 810.178 75.9136 808.215 73.697C806.252 71.4803 804.732 68.8836 803.655 65.907C802.578 62.9303 802.04 59.7636 802.04 56.407C802.04 53.0503 802.547 49.9153 803.56 47.002C804.637 44.0253 806.157 41.4286 808.12 39.212C810.147 36.9953 812.585 35.2536 815.435 33.987C818.285 32.657 821.515 31.992 825.125 31.992C827.722 31.992 830.128 32.3403 832.345 33.037C834.625 33.7336 836.652 34.747 838.425 36.077C840.198 37.407 841.687 39.0536 842.89 41.017C844.093 42.917 844.917 45.102 845.36 47.572H837.95C837.253 44.7853 835.797 42.6636 833.58 41.207C831.363 39.7503 828.64 39.022 825.41 39.022C822.94 39.022 820.692 39.4653 818.665 40.352C816.638 41.2386 814.897 42.442 813.44 43.962C812.047 45.482 810.938 47.287 810.115 49.377C809.355 51.4036 808.975 53.5886 808.975 55.932C808.975 58.212 809.355 60.4286 810.115 62.582C810.875 64.7353 811.952 66.667 813.345 68.377C814.738 70.0236 816.417 71.3536 818.38 72.367C820.407 73.317 822.655 73.792 825.125 73.792C826.582 73.792 828.007 73.602 829.4 73.222C830.793 72.842 832.06 72.272 833.2 71.512C834.34 70.752 835.322 69.802 836.145 68.662C836.968 67.522 837.57 66.192 837.95 64.672H845.36C844.917 67.142 844.03 69.3903 842.7 71.417C841.433 73.3803 839.85 75.0903 837.95 76.547C836.113 77.9403 834.023 79.017 831.68 79.777C829.337 80.537 826.898 80.917 824.365 80.917ZM856.454 33.702L870.704 72.557L885.619 33.702H893.314L868.424 95.927C867.727 97.3836 867.062 98.5553 866.429 99.442C865.859 100.392 865.289 101.12 864.719 101.627C864.149 102.134 863.516 102.482 862.819 102.672C862.186 102.862 861.426 102.957 860.539 102.957H851.229V95.832H855.219C856.676 95.832 857.816 95.737 858.639 95.547C859.526 95.4203 860.254 95.1353 860.824 94.692C861.394 94.2486 861.869 93.5836 862.249 92.697C862.692 91.8736 863.136 90.797 863.579 89.467C864.276 87.4403 865.257 84.7803 866.524 81.487L848.094 33.702H856.454Z" fill="white"/>
<path d="M103.729 41.2867C108.334 34.5762 112.852 31.2209 117.281 31.2209C124.204 31.2209 123.932 38.2817 123.932 50.1018C122.58 50.1018 121.12 50.1018 121.12 50.1018C121.12 46.5932 119.936 41.7295 118.998 40.0604C118.059 38.3573 116.416 37.5057 114.069 37.5057C110.549 37.5057 107.102 39.7709 103.729 44.3013V79.4038H96.4686V44.3013C96.4686 41.1334 96.1899 38.9534 95.6325 37.7611C95.1045 36.5689 94.1951 35.9728 92.9044 35.9728C90.8217 35.9728 89.5456 38.3573 89.0763 43.1262H87.4922C88.0495 35.1893 90.8657 31.2209 95.9405 31.2209C98.1993 31.2209 100.047 32.1407 101.485 33.9801C102.922 35.7855 103.67 38.221 103.729 41.2867Z" fill="white"/>
<path d="M144.943 68.1396H146.577C146.002 75.6491 143.097 79.4038 137.861 79.4038C136.015 79.4038 134.426 78.858 133.095 77.7663C131.794 76.6415 130.916 75.3844 130.462 73.995C130.038 72.5725 129.827 70.1245 129.827 66.651V50.2261C129.827 44.9331 129.645 41.5423 129.282 40.0536C128.919 38.565 128.011 37.8207 126.558 37.8207C125.711 37.8207 124.682 38.0688 123.471 38.565L122.836 36.7786L135.365 31.2209H137.362V67.048C137.362 69.9922 137.619 72.0102 138.134 73.1018C138.648 74.1935 139.586 74.7394 140.948 74.7394C143.006 74.7394 144.337 72.5395 144.943 68.1396Z" fill="white"/>
<path d="M36.5795 32.56H44.7551L39.8016 55.5349C38.8398 59.9017 38.1825 62.5813 37.8299 63.5737C39.1123 69.6606 40.9719 72.7041 43.4085 72.7041C46.294 72.7041 47.7849 70.6531 47.881 66.551H49.6123C49.5162 70.3884 48.8268 73.4981 47.5444 75.8799C46.294 78.2287 44.6429 79.4031 42.5909 79.4031C40.8917 79.4031 39.6253 78.6918 38.7917 77.2693C37.9581 75.8468 37.0604 72.9357 36.0986 68.5359C32.7642 75.7807 27.3138 79.4031 19.7474 79.4031C14.5855 79.4031 10.4817 77.3355 7.4359 73.2003C4.39009 69.0321 2.86719 63.0775 2.86719 55.3365C2.86719 47.7278 4.53437 41.8062 7.86873 37.5718C11.2031 33.3374 15.2107 31.2202 19.8917 31.2202C23.194 31.2202 25.9031 32.4277 28.0192 34.8426C30.1352 37.2575 32.0108 41.1942 33.6459 46.6526L36.5795 32.56ZM32.3474 52.0118C30.8405 46.6857 29.1573 42.534 27.2978 39.5567C25.4382 36.5463 23.21 35.0411 20.613 35.0411C14.7458 35.0411 11.8122 42.1205 11.8122 56.2793C11.8122 69.7103 14.6176 76.4258 20.2283 76.4258C25.1016 76.4258 28.7085 70.5042 31.0489 58.6611L32.3474 52.0118Z" fill="white"/>
<path d="M69.9522 33.0403C68.0525 31.0756 65.4121 28.7251 62.0308 25.9886C58.3075 22.9714 55.8 20.6033 54.5083 18.8842C53.2166 17.13 52.5707 15.218 52.5707 13.148C52.5707 10.0607 54.1284 7.63995 57.2437 5.88578C60.3591 4.09653 64.4243 3.2019 69.4393 3.2019C74.4542 3.2019 78.8233 3.99128 82.5466 5.57003C86.3078 7.14878 88.1884 9.32395 88.1884 12.0955C88.1884 13.4287 87.7325 14.5338 86.8207 15.4109C85.9089 16.288 84.8451 16.7265 83.6294 16.7265C81.8817 16.7265 79.8301 15.5162 77.4746 13.0954C75.0811 10.6396 73.0485 8.92049 71.3769 7.93816C69.7432 6.92074 67.8246 6.41203 65.621 6.41203C62.8096 6.41203 60.4921 6.99091 58.6684 8.14866C56.8828 9.30641 55.99 10.7799 55.99 12.5692C55.99 14.2532 56.7308 15.8319 58.2125 17.3054C59.6942 18.7789 63.5125 21.4628 69.6672 25.3571C76.2399 29.532 80.8749 32.7947 83.5724 35.1453C86.3078 37.4959 88.5304 40.3552 90.24 43.7232C91.9497 47.0912 92.8045 50.6522 92.8045 54.4061C92.8045 61.0018 90.278 66.8256 85.225 71.8776C80.2101 76.8945 74.3403 79.403 67.6156 79.403C61.4989 79.403 56.3319 77.3857 52.1148 73.3511C47.8976 69.3165 45.7891 63.9312 45.7891 57.1952C45.7891 50.7048 48.1066 45.2844 52.7416 40.9341C57.4147 36.5837 63.1515 33.9525 69.9522 33.0403V33.0403ZM72.4596 35.4611C61.5559 37.11 56.104 44.0214 56.104 56.1953C56.104 62.4753 57.4527 67.3519 60.1501 70.8251C62.8856 74.2984 66.0579 76.035 69.6672 76.035C73.4284 76.035 76.5248 74.3685 78.9563 71.0356C81.3878 67.6676 82.6036 63.1243 82.6036 57.4057C82.6036 49.126 79.2223 41.8112 72.4596 35.4611V35.4611Z" fill="white"/>
<path d="M64.3434 50.2168H63.4062V63.0585H64.3434C64.3433 61.5519 64.6352 60.4707 65.2188 59.8148C65.8024 59.159 66.8259 58.8311 68.2891 58.8311H70.3359C71.8649 58.8311 72.9171 59.159 73.4925 59.8148C74.0679 60.4707 74.3556 61.5519 74.3557 63.0585H75.2928V50.2168H74.3557C74.3556 51.7589 74.0597 52.8534 73.4679 53.5003C72.876 54.1473 71.8485 54.4708 70.3853 54.4708H68.3877C66.8423 54.4708 65.7819 54.1429 65.2065 53.487C64.6311 52.8312 64.3433 51.7412 64.3434 50.2168Z" fill="white"/>
<circle cx="132.493" cy="11.6924" r="5.09422" fill="white"/>
</g>
<defs>
<clipPath id="clip0_1089_50">
<rect width="1046" height="104" fill="white"/>
</clipPath>
</defs>
</svg>
