<svg width="1046" height="111" viewBox="0 0 1046 111" fill="none" xmlns="http://www.w3.org/2000/svg">
<g clip-path="url(#clip0_1089_56)">
<path d="M48.64 53.3516V58.3866H12.825C13.1417 63.39 14.7883 67.38 17.765 70.3566C20.805 73.3333 24.9217 74.8216 30.115 74.8216C31.5717 74.8216 32.8383 74.695 33.915 74.4416C35.055 74.1883 36.0683 73.7766 36.955 73.2066C37.8417 72.6366 38.665 71.9083 39.425 71.0216C40.185 70.135 40.945 69.09 41.705 67.8866L49.02 70.0716C46.6767 74.0616 44.0483 77.0383 41.135 79.0016C38.2217 80.9016 34.4533 81.8516 29.83 81.8516C26.0933 81.8516 22.705 81.25 19.665 80.0466C16.6883 78.78 14.1233 77.07 11.97 74.9166C9.88 72.7633 8.265 70.1983 7.125 67.2216C5.985 64.1816 5.415 60.92 5.415 57.4366C5.415 53.9533 5.95333 50.7233 7.03 47.7466C8.17 44.77 9.72167 42.1733 11.685 39.9566C13.7117 37.74 16.1183 35.9983 18.905 34.7316C21.6917 33.465 24.7633 32.8316 28.12 32.8316C31.2233 32.8316 34.01 33.37 36.48 34.4466C39.0133 35.5233 41.1667 36.98 42.94 38.8166C44.7767 40.6533 46.17 42.8383 47.12 45.3716C48.1333 47.8416 48.64 50.5016 48.64 53.3516ZM41.23 51.8316C41.1033 48.285 39.8367 45.3716 37.43 43.0916C35.0867 40.8116 31.9833 39.6716 28.12 39.6716C24.32 39.6716 21.1217 40.78 18.525 42.9966C15.9283 45.2133 14.155 48.1583 13.205 51.8316H41.23ZM51.5086 80.0466L68.0386 57.1516L51.5086 34.3516H60.4386L72.5036 50.9766L84.4736 34.3516H93.4036L76.9686 57.1516L93.4036 80.0466H84.4736L72.5036 63.4216L60.4386 80.0466H51.5086ZM139.985 53.3516V58.3866H104.17C104.486 63.39 106.133 67.38 109.11 70.3566C112.15 73.3333 116.266 74.8216 121.46 74.8216C122.916 74.8216 124.183 74.695 125.26 74.4416C126.4 74.1883 127.413 73.7766 128.3 73.2066C129.186 72.6366 130.01 71.9083 130.77 71.0216C131.53 70.135 132.29 69.09 133.05 67.8866L140.365 70.0716C138.021 74.0616 135.393 77.0383 132.48 79.0016C129.566 80.9016 125.798 81.8516 121.175 81.8516C117.438 81.8516 114.05 81.25 111.01 80.0466C108.033 78.78 105.468 77.07 103.315 74.9166C101.225 72.7633 99.6097 70.1983 98.4697 67.2216C97.3297 64.1816 96.7597 60.92 96.7597 57.4366C96.7597 53.9533 97.2981 50.7233 98.3747 47.7466C99.5147 44.77 101.066 42.1733 103.03 39.9566C105.056 37.74 107.463 35.9983 110.25 34.7316C113.036 33.465 116.108 32.8316 119.465 32.8316C122.568 32.8316 125.355 33.37 127.825 34.4466C130.358 35.5233 132.511 36.98 134.285 38.8166C136.121 40.6533 137.515 42.8383 138.465 45.3716C139.478 47.8416 139.985 50.5016 139.985 53.3516ZM132.575 51.8316C132.448 48.285 131.181 45.3716 128.775 43.0916C126.431 40.8116 123.328 39.6716 119.465 39.6716C115.665 39.6716 112.466 40.78 109.87 42.9966C107.273 45.2133 105.5 48.1583 104.55 51.8316H132.575ZM167.933 81.5666C164.64 81.5666 161.6 80.9333 158.813 79.6666C156.09 78.3366 153.747 76.5633 151.783 74.3466C149.82 72.13 148.3 69.5333 147.223 66.5566C146.147 63.58 145.608 60.4133 145.608 57.0566C145.608 53.7 146.115 50.565 147.128 47.6516C148.205 44.675 149.725 42.0783 151.688 39.8616C153.715 37.645 156.153 35.9033 159.003 34.6366C161.853 33.3066 165.083 32.6416 168.693 32.6416C171.29 32.6416 173.697 32.99 175.913 33.6866C178.193 34.3833 180.22 35.3966 181.993 36.7266C183.767 38.0566 185.255 39.7033 186.458 41.6666C187.662 43.5666 188.485 45.7516 188.928 48.2216H181.518C180.822 45.435 179.365 43.3133 177.148 41.8566C174.932 40.4 172.208 39.6716 168.978 39.6716C166.508 39.6716 164.26 40.115 162.233 41.0016C160.207 41.8883 158.465 43.0916 157.008 44.6116C155.615 46.1316 154.507 47.9366 153.683 50.0266C152.923 52.0533 152.543 54.2383 152.543 56.5816C152.543 58.8616 152.923 61.0783 153.683 63.2316C154.443 65.385 155.52 67.3166 156.913 69.0266C158.307 70.6733 159.985 72.0033 161.948 73.0166C163.975 73.9666 166.223 74.4416 168.693 74.4416C170.15 74.4416 171.575 74.2516 172.968 73.8716C174.362 73.4916 175.628 72.9216 176.768 72.1616C177.908 71.4016 178.89 70.4516 179.713 69.3116C180.537 68.1716 181.138 66.8416 181.518 65.3216H188.928C188.485 67.7916 187.598 70.04 186.268 72.0666C185.002 74.03 183.418 75.74 181.518 77.1966C179.682 78.59 177.592 79.6666 175.248 80.4266C172.905 81.1866 170.467 81.5666 167.933 81.5666ZM194.418 64.1816V34.3516H201.828V62.3766C201.828 66.4933 202.714 69.6283 204.488 71.7816C206.261 73.935 208.858 75.0116 212.278 75.0116C214.304 75.0116 216.173 74.6316 217.883 73.8716C219.593 73.0483 221.049 71.94 222.253 70.5466C223.519 69.1533 224.469 67.475 225.103 65.5116C225.799 63.5483 226.148 61.395 226.148 59.0516V34.3516H233.558V80.0466H226.148V75.2966C224.184 77.7033 222.126 79.35 219.973 80.2366C217.819 81.1233 215.508 81.5666 213.038 81.5666C210.251 81.5666 207.686 81.1233 205.343 80.2366C203.063 79.4133 201.099 78.2416 199.453 76.7216C197.869 75.1383 196.634 73.3016 195.748 71.2116C194.861 69.0583 194.418 66.715 194.418 64.1816ZM241.371 40.9066V34.2566H250.111V18.2016H257.521V34.2566H273.481V40.9066H257.521V65.6066C257.521 68.2666 258.028 70.1983 259.041 71.4016C260.055 72.605 261.733 73.2066 264.076 73.2066H273.101V80.0466H260.656C258.946 80.0466 257.426 79.6666 256.096 78.9066C254.83 78.1466 253.753 77.1333 252.866 75.8666C251.98 74.6 251.283 73.1116 250.776 71.4016C250.333 69.6283 250.111 67.76 250.111 65.7966V40.9066H241.371ZM281.725 34.3516H289.325V80.0466H281.725V34.3516ZM281.535 20.7666H289.325V28.6516H281.535V20.7666ZM321.163 32.8316C324.52 32.8316 327.623 33.465 330.473 34.7316C333.386 35.935 335.888 37.645 337.978 39.8616C340.131 42.015 341.81 44.58 343.013 47.5566C344.216 50.5333 344.818 53.795 344.818 57.3416C344.818 60.825 344.216 64.055 343.013 67.0316C341.873 70.0083 340.258 72.5733 338.168 74.7266C336.078 76.88 333.576 78.5583 330.663 79.7616C327.813 80.965 324.678 81.5666 321.258 81.5666C317.838 81.5666 314.671 80.965 311.758 79.7616C308.845 78.5583 306.311 76.88 304.158 74.7266C302.068 72.5733 300.421 70.0083 299.218 67.0316C298.015 64.055 297.413 60.825 297.413 57.3416C297.413 53.8583 298.015 50.6283 299.218 47.6516C300.421 44.6116 302.068 42.015 304.158 39.8616C306.311 37.645 308.813 35.935 311.663 34.7316C314.576 33.465 317.743 32.8316 321.163 32.8316ZM321.258 74.5366C323.601 74.5366 325.755 74.0933 327.718 73.2066C329.681 72.32 331.36 71.1166 332.753 69.5966C334.21 68.0133 335.35 66.1766 336.173 64.0866C336.996 61.9333 337.408 59.6216 337.408 57.1516C337.408 54.6816 336.996 52.4016 336.173 50.3116C335.35 48.1583 334.21 46.3216 332.753 44.8016C331.36 43.2816 329.681 42.0783 327.718 41.1916C325.755 40.305 323.601 39.8616 321.258 39.8616C318.915 39.8616 316.73 40.305 314.703 41.1916C312.74 42.0783 310.998 43.2816 309.478 44.8016C308.021 46.3216 306.881 48.1583 306.058 50.3116C305.235 52.4016 304.823 54.6816 304.823 57.1516C304.823 59.6216 305.235 61.9333 306.058 64.0866C306.881 66.1766 308.021 68.0133 309.478 69.5966C310.998 71.1166 312.74 72.32 314.703 73.2066C316.73 74.0933 318.915 74.5366 321.258 74.5366ZM351.689 34.3516H359.099V39.7666C360.936 37.55 363.058 35.84 365.464 34.6366C367.934 33.4333 370.784 32.8316 374.014 32.8316C379.144 32.8316 383.229 34.3833 386.269 37.4866C389.309 40.5266 390.829 44.7383 390.829 50.1216V80.0466H383.419V52.0216C383.419 43.5983 379.841 39.3866 372.684 39.3866C368.504 39.3866 365.179 40.8116 362.709 43.6616C360.303 46.5116 359.099 50.4066 359.099 55.3466V80.0466H351.689V34.3516ZM416.389 80.0466C416.169 80.0466 416.059 79.8266 416.059 79.3866C416.059 78.9466 416.169 78.7266 416.389 78.7266C418.369 78.7266 419.836 78.5433 420.789 78.1766C421.743 77.7366 422.403 77.0033 422.769 75.9766C423.136 74.8766 423.319 73.2633 423.319 71.1366V14.2666C423.319 11.6266 423.063 9.71996 422.549 8.54663C422.036 7.3733 421.119 6.78663 419.799 6.78663C418.699 6.78663 417.013 7.29996 414.739 8.32663H414.519C414.299 8.32663 414.116 8.1433 413.969 7.77663C413.896 7.40996 413.969 7.18996 414.189 7.11663L428.269 0.406627C428.416 0.333294 428.599 0.296628 428.819 0.296628C429.039 0.296628 429.259 0.406627 429.479 0.626624C429.699 0.773293 429.809 0.956628 429.809 1.17663V71.1366C429.809 73.2633 429.956 74.84 430.249 75.8666C430.616 76.8933 431.276 77.6266 432.229 78.0666C433.183 78.5066 434.649 78.7266 436.629 78.7266C436.849 78.7266 436.959 78.9466 436.959 79.3866C436.959 79.8266 436.849 80.0466 436.629 80.0466C435.016 80.0466 433.696 80.01 432.669 79.9366L426.509 79.8266L420.569 79.9366C419.543 80.01 418.149 80.0466 416.389 80.0466ZM469.389 80.7066C469.095 80.8533 468.802 80.9266 468.509 80.9266C467.409 80.9266 466.455 80.0833 465.649 78.3966C464.842 76.71 464.439 74.4733 464.439 71.6866V50.8966C464.439 42.6833 462.129 38.5766 457.509 38.5766C455.015 38.5766 453.109 39.42 451.789 41.1066C450.542 42.72 449.699 44.59 449.259 46.7166C448.965 48.11 448.525 49.21 447.939 50.0166C447.425 50.8233 446.472 51.2266 445.079 51.2266C443.905 51.2266 442.989 50.8966 442.329 50.2366C441.742 49.5766 441.449 48.8066 441.449 47.9266C441.449 46.1666 442.585 44.4066 444.859 42.6466C447.132 40.8866 449.845 39.42 452.999 38.2466C456.152 37.0733 458.975 36.4866 461.469 36.4866C464.475 36.4866 466.749 37.44 468.289 39.3466C469.829 41.2533 470.599 44.0033 470.599 47.5966V68.1666C470.599 70.7333 470.929 72.6033 471.589 73.7766C472.249 74.95 473.312 75.5366 474.779 75.5366C476.245 75.5366 478.079 75.06 480.279 74.1066H480.499C480.792 74.1066 480.975 74.29 481.049 74.6566C481.122 74.95 481.012 75.17 480.719 75.3166L469.389 80.7066ZM449.589 80.8166C446.875 80.8166 444.749 80.12 443.209 78.7266C441.742 77.26 441.009 75.4266 441.009 73.2266C441.009 71.0266 441.889 69.12 443.649 67.5066C445.409 65.8933 448.305 64.3533 452.339 62.8866L465.539 57.9366L465.869 59.3666L454.209 63.8766C452.155 64.6833 450.652 65.6366 449.699 66.7366C448.819 67.7633 448.379 69.01 448.379 70.4766C448.379 72.2366 448.929 73.74 450.029 74.9866C451.202 76.16 452.705 76.7466 454.539 76.7466C456.005 76.7466 457.765 76.16 459.819 74.9866L466.749 70.8066L466.969 72.2366L458.829 77.5166C456.995 78.69 455.382 79.5333 453.989 80.0466C452.595 80.56 451.129 80.8166 449.589 80.8166ZM521.661 37.5866C521.881 37.5866 521.991 37.8066 521.991 38.2466C521.991 38.6866 521.881 38.9066 521.661 38.9066C519.828 38.9066 518.214 39.5666 516.821 40.8866C515.501 42.1333 514.291 44.2966 513.191 47.3766L499.771 83.1266C497.058 90.24 494.491 95.7766 492.071 99.7366C489.724 103.77 487.268 106.63 484.701 108.317C482.208 110.077 479.311 110.957 476.011 110.957C474.398 110.957 473.078 110.59 472.051 109.857C470.951 109.123 470.401 108.06 470.401 106.667C470.401 105.64 470.731 104.833 471.391 104.247C472.051 103.66 472.858 103.367 473.811 103.367C474.764 103.367 475.571 103.477 476.231 103.697C476.891 103.917 477.588 104.283 478.321 104.797C478.468 104.87 478.871 105.09 479.531 105.457C480.264 105.823 481.144 106.007 482.171 106.007C484.004 106.007 485.728 105.163 487.341 103.477C488.954 101.863 490.678 99.1133 492.511 95.2266C494.418 91.34 496.691 85.9133 499.331 78.9466L499.221 82.0266L481.841 46.7166C480.154 43.49 478.871 41.4 477.991 40.4466C477.111 39.42 475.974 38.9066 474.581 38.9066C474.434 38.9066 474.361 38.6866 474.361 38.2466C474.361 37.8066 474.434 37.5866 474.581 37.5866L478.321 37.6966C479.201 37.77 480.411 37.8066 481.951 37.8066L488.991 37.6966C490.018 37.6233 491.448 37.5866 493.281 37.5866C493.428 37.5866 493.501 37.8066 493.501 38.2466C493.501 38.6866 493.428 38.9066 493.281 38.9066C489.028 38.9066 486.901 39.75 486.901 41.4366C486.901 41.8766 487.084 42.4633 487.451 43.1966L502.521 74.2166L499.991 78.7266L510.771 47.7066C511.358 45.9466 511.651 44.5533 511.651 43.5266C511.651 41.84 510.991 40.6666 509.671 40.0066C508.351 39.2733 506.188 38.9066 503.181 38.9066C503.034 38.9066 502.961 38.6866 502.961 38.2466C502.961 37.8066 503.034 37.5866 503.181 37.5866C505.161 37.5866 506.664 37.6233 507.691 37.6966L514.291 37.8066L518.251 37.6966C518.984 37.6233 520.121 37.5866 521.661 37.5866ZM540.644 81.3666C536.39 81.3666 532.76 80.3766 529.754 78.3966C526.747 76.4166 524.437 73.8133 522.824 70.5866C521.284 67.36 520.514 63.9133 520.514 60.2466C520.514 55.92 521.54 51.96 523.594 48.3666C525.647 44.7 528.434 41.84 531.954 39.7866C535.547 37.66 539.47 36.5966 543.724 36.5966C547.83 36.5966 550.984 37.6966 553.184 39.8966C555.384 42.0966 556.484 45.1766 556.484 49.1366C556.484 50.1633 556.374 50.8966 556.154 51.3366C556.007 51.7766 555.677 51.9966 555.164 51.9966H549.004L549.114 50.0166C549.114 46.35 548.307 43.5633 546.694 41.6566C545.08 39.75 542.88 38.7966 540.094 38.7966C536.207 38.7966 533.164 40.3366 530.964 43.4166C528.837 46.4966 527.774 50.7133 527.774 56.0666C527.774 62.4466 529.277 67.6166 532.284 71.5766C535.29 75.5366 539.507 77.5166 544.934 77.5166C547.134 77.5166 549.004 77.2233 550.544 76.6366C552.157 76.05 553.954 75.1333 555.934 73.8866H556.044C556.264 73.8866 556.447 74.0333 556.594 74.3266C556.814 74.5466 556.85 74.7666 556.704 74.9866C551.717 79.24 546.364 81.3666 540.644 81.3666ZM525.684 50.6766L550.654 50.2366V51.9966L525.794 52.1066L525.684 50.6766ZM571.246 49.0266C575.133 44.1866 578.139 40.9233 580.266 39.2366C582.393 37.4766 584.373 36.5966 586.206 36.5966C587.819 36.5966 589.359 37.0366 590.826 37.9166C592.293 38.7966 593.026 39.86 593.026 41.1066C593.026 42.06 592.696 42.8666 592.036 43.5266C591.376 44.1866 590.496 44.5166 589.396 44.5166C588.736 44.5166 588.149 44.4066 587.636 44.1866C587.196 43.8933 586.646 43.49 585.986 42.9766C585.326 42.39 584.703 41.95 584.116 41.6566C583.529 41.3633 582.833 41.2166 582.026 41.2166C580.926 41.2166 579.716 41.7666 578.396 42.8666C577.076 43.9666 574.839 46.4233 571.686 50.2366L571.246 49.0266ZM560.906 80.0466C560.686 80.0466 560.576 79.8266 560.576 79.3866C560.576 78.9466 560.686 78.7266 560.906 78.7266C562.886 78.7266 564.353 78.5433 565.306 78.1766C566.259 77.7366 566.883 77.0033 567.176 75.9766C567.543 74.95 567.726 73.3366 567.726 71.1366V49.3566C567.726 46.8633 567.433 45.0666 566.846 43.9666C566.259 42.8666 565.269 42.3166 563.876 42.3166C562.703 42.3166 560.723 42.8666 557.936 43.9666H557.716C557.423 43.9666 557.203 43.82 557.056 43.5266C556.983 43.16 557.093 42.9033 557.386 42.7566L570.146 36.7066C570.293 36.6333 570.513 36.5966 570.806 36.5966C571.466 36.5966 572.163 37.44 572.896 39.1266C573.629 40.8133 573.996 42.9766 573.996 45.6166V71.1366C573.996 73.3366 574.253 74.95 574.766 75.9766C575.353 77.0033 576.379 77.7366 577.846 78.1766C579.313 78.5433 581.586 78.7266 584.666 78.7266C584.959 78.7266 585.106 78.9466 585.106 79.3866C585.106 79.8266 584.959 80.0466 584.666 80.0466C582.319 80.0466 580.449 80.01 579.056 79.9366L570.916 79.8266L564.866 79.9366C563.913 80.01 562.593 80.0466 560.906 80.0466ZM631.486 81.3666C628.406 81.3666 625.876 80.67 623.896 79.2766C621.916 77.8833 620.926 75.5733 620.926 72.3466V46.4966C620.926 44.59 620.779 43.2333 620.486 42.4266C620.266 41.62 619.789 41.1066 619.056 40.8866C618.322 40.5933 617.076 40.4466 615.316 40.4466C615.022 40.4466 614.876 40.2266 614.876 39.7866C614.876 39.2733 615.022 39.0166 615.316 39.0166C618.249 38.9433 620.632 38.1733 622.466 36.7066C624.299 35.1666 625.362 33.15 625.656 30.6566C625.656 30.4366 625.949 30.3266 626.536 30.3266C627.049 30.3266 627.306 30.4366 627.306 30.6566V68.6066C627.306 74.5466 630.202 77.5166 635.996 77.5166C639.369 77.5166 642.302 76.49 644.796 74.4366L645.016 74.3266C645.309 74.3266 645.529 74.51 645.676 74.8766C645.822 75.17 645.786 75.39 645.566 75.5366C642.852 77.6633 640.396 79.1666 638.196 80.0466C636.069 80.9266 633.832 81.3666 631.486 81.3666ZM642.156 42.9766C637.462 41.8033 631.889 41.2166 625.436 41.2166V38.7966C630.056 38.7966 635.776 38.43 642.596 37.6966C642.742 37.6966 642.889 37.99 643.036 38.5766C643.256 39.09 643.366 39.6766 643.366 40.3366C643.366 40.9233 643.219 41.5466 642.926 42.2066C642.706 42.7933 642.449 43.05 642.156 42.9766ZM645.334 80.0466C645.114 80.0466 645.004 79.8266 645.004 79.3866C645.004 78.9466 645.114 78.7266 645.334 78.7266C647.314 78.7266 648.78 78.5433 649.734 78.1766C650.687 77.7366 651.347 77.0033 651.714 75.9766C652.08 74.8766 652.264 73.2633 652.264 71.1366V14.2666C652.264 11.6266 652.007 9.71996 651.494 8.54663C650.98 7.3733 650.064 6.78663 648.744 6.78663C647.644 6.78663 645.957 7.29996 643.684 8.32663L643.464 8.43663C643.244 8.43663 643.06 8.2533 642.914 7.88663C642.767 7.51996 642.84 7.26329 643.134 7.11663L657.104 0.296628H657.434C657.727 0.296628 657.947 0.406627 658.094 0.626624C658.314 0.773293 658.424 0.956628 658.424 1.17663V71.1366C658.424 73.3366 658.607 74.95 658.974 75.9766C659.34 77.0033 660 77.7366 660.954 78.1766C661.907 78.5433 663.374 78.7266 665.354 78.7266C665.574 78.7266 665.684 78.9466 665.684 79.3866C665.684 79.8266 665.574 80.0466 665.354 80.0466C663.667 80.0466 662.31 80.01 661.284 79.9366L655.344 79.8266L649.404 79.9366C648.377 80.01 647.02 80.0466 645.334 80.0466ZM674.924 80.0466C674.704 80.0466 674.594 79.8266 674.594 79.3866C674.594 78.9466 674.704 78.7266 674.924 78.7266C676.904 78.7266 678.37 78.5433 679.324 78.1766C680.277 77.7366 680.937 77.0033 681.304 75.9766C681.67 74.8766 681.854 73.2633 681.854 71.1366V53.6466C681.854 49.32 681.01 46.0933 679.324 43.9666C677.71 41.84 675.18 40.7766 671.734 40.7766C669.02 40.7766 666.27 41.6566 663.484 43.4166C660.697 45.1033 658.314 47.4133 656.334 50.3466L655.894 49.0266C659.194 44.7 662.384 41.5466 665.464 39.5666C668.617 37.5133 671.917 36.4866 675.364 36.4866C679.397 36.4866 682.514 37.6233 684.714 39.8966C686.914 42.17 688.014 45.47 688.014 49.7966V71.1366C688.014 73.3366 688.197 74.95 688.564 75.9766C688.93 77.0033 689.59 77.7366 690.544 78.1766C691.497 78.5433 692.964 78.7266 694.944 78.7266C695.164 78.7266 695.274 78.9466 695.274 79.3866C695.274 79.8266 695.164 80.0466 694.944 80.0466C693.257 80.0466 691.9 80.01 690.874 79.9366L684.934 79.8266L678.994 79.9366C677.967 80.01 676.61 80.0466 674.924 80.0466ZM726.406 80.7066C726.113 80.8533 725.82 80.9266 725.526 80.9266C724.426 80.9266 723.473 80.0833 722.666 78.3966C721.86 76.71 721.456 74.4733 721.456 71.6866V50.8966C721.456 42.6833 719.146 38.5766 714.526 38.5766C712.033 38.5766 710.126 39.42 708.806 41.1066C707.56 42.72 706.716 44.59 706.276 46.7166C705.983 48.11 705.543 49.21 704.956 50.0166C704.443 50.8233 703.49 51.2266 702.096 51.2266C700.923 51.2266 700.006 50.8966 699.346 50.2366C698.76 49.5766 698.466 48.8066 698.466 47.9266C698.466 46.1666 699.603 44.4066 701.876 42.6466C704.15 40.8866 706.863 39.42 710.016 38.2466C713.17 37.0733 715.993 36.4866 718.486 36.4866C721.493 36.4866 723.766 37.44 725.306 39.3466C726.846 41.2533 727.616 44.0033 727.616 47.5966V68.1666C727.616 70.7333 727.946 72.6033 728.606 73.7766C729.266 74.95 730.33 75.5366 731.796 75.5366C733.263 75.5366 735.096 75.06 737.296 74.1066H737.516C737.81 74.1066 737.993 74.29 738.066 74.6566C738.14 74.95 738.03 75.17 737.736 75.3166L726.406 80.7066ZM706.606 80.8166C703.893 80.8166 701.766 80.12 700.226 78.7266C698.76 77.26 698.026 75.4266 698.026 73.2266C698.026 71.0266 698.906 69.12 700.666 67.5066C702.426 65.8933 705.323 64.3533 709.356 62.8866L722.556 57.9366L722.886 59.3666L711.226 63.8766C709.173 64.6833 707.67 65.6366 706.716 66.7366C705.836 67.7633 705.396 69.01 705.396 70.4766C705.396 72.2366 705.946 73.74 707.046 74.9866C708.22 76.16 709.723 76.7466 711.556 76.7466C713.023 76.7466 714.783 76.16 716.836 74.9866L723.766 70.8066L723.986 72.2366L715.846 77.5166C714.013 78.69 712.4 79.5333 711.006 80.0466C709.613 80.56 708.146 80.8166 706.606 80.8166ZM753.13 81.3666C750.05 81.3666 747.52 80.67 745.54 79.2766C743.56 77.8833 742.57 75.5733 742.57 72.3466V46.4966C742.57 44.59 742.424 43.2333 742.13 42.4266C741.91 41.62 741.434 41.1066 740.7 40.8866C739.967 40.5933 738.72 40.4466 736.96 40.4466C736.667 40.4466 736.52 40.2266 736.52 39.7866C736.52 39.2733 736.667 39.0166 736.96 39.0166C739.894 38.9433 742.277 38.1733 744.11 36.7066C745.944 35.1666 747.007 33.15 747.3 30.6566C747.3 30.4366 747.594 30.3266 748.18 30.3266C748.694 30.3266 748.95 30.4366 748.95 30.6566V68.6066C748.95 74.5466 751.847 77.5166 757.64 77.5166C761.014 77.5166 763.947 76.49 766.44 74.4366L766.66 74.3266C766.954 74.3266 767.174 74.51 767.32 74.8766C767.467 75.17 767.43 75.39 767.21 75.5366C764.497 77.6633 762.04 79.1666 759.84 80.0466C757.714 80.9266 755.477 81.3666 753.13 81.3666ZM763.8 42.9766C759.107 41.8033 753.534 41.2166 747.08 41.2166V38.7966C751.7 38.7966 757.42 38.43 764.24 37.6966C764.387 37.6966 764.534 37.99 764.68 38.5766C764.9 39.09 765.01 39.6766 765.01 40.3366C765.01 40.9233 764.864 41.5466 764.57 42.2066C764.35 42.7933 764.094 43.05 763.8 42.9766Z" fill="white"/>
</g>
<defs>
<clipPath id="clip0_1089_56">
<rect width="1046" height="111" fill="white"/>
</clipPath>
</defs>
</svg>
