<svg width="1046" height="105" viewBox="0 0 1046 105" fill="none" xmlns="http://www.w3.org/2000/svg">
<g clip-path="url(#clip0_1089_59)">
<path d="M10.7813 44.8716C10.7813 47.4382 11.6246 49.4916 13.3113 51.0316C14.9979 52.4982 17.4913 54.0749 20.7913 55.7616C23.3579 57.0816 25.3379 58.2182 26.7313 59.1716C28.1979 60.1249 29.4446 61.3716 30.4713 62.9116C31.4979 64.4516 32.0113 66.3216 32.0113 68.5216C32.0113 72.2616 30.6179 75.4149 27.8313 77.9816C25.0446 80.5482 21.2679 81.8316 16.5013 81.8316C12.6146 81.8316 9.09458 80.7316 5.94125 78.5316C5.50125 78.2382 5.28125 77.7982 5.28125 77.2116L5.06125 68.6316C5.06125 68.4116 5.24458 68.3016 5.61125 68.3016C6.05125 68.2282 6.30792 68.3016 6.38125 68.5216C7.77458 72.2616 9.57125 75.0849 11.7713 76.9916C14.0446 78.8249 16.6479 79.7416 19.5813 79.7416C21.8546 79.7416 23.6146 79.2282 24.8613 78.2016C26.1813 77.1016 26.8413 75.4882 26.8413 73.3616C26.8413 71.3082 26.3646 69.5849 25.4113 68.1916C24.5313 66.7249 23.4313 65.5882 22.1113 64.7816C20.7913 63.9016 18.9946 62.8749 16.7213 61.7016C14.3013 60.5282 12.3579 59.4649 10.8913 58.5116C9.49792 57.5582 8.28792 56.3116 7.26125 54.7716C6.30792 53.2316 5.83125 51.3249 5.83125 49.0516C5.83125 45.0916 7.29792 42.0849 10.2313 40.0316C13.2379 37.9049 16.7579 36.8416 20.7913 36.8416C23.7246 36.8416 26.4013 37.3916 28.8212 38.4916C29.2613 38.6382 29.5179 38.8216 29.5913 39.0416C29.7379 39.1882 29.8113 39.4082 29.8113 39.7016C29.8113 41.1682 29.7746 42.3049 29.7013 43.1116L29.5913 47.7316C29.5913 47.8782 29.3713 47.9516 28.9313 47.9516C28.4913 47.9516 28.2713 47.8782 28.2713 47.7316C28.2713 45.3849 27.0246 43.3316 24.5313 41.5716C22.1113 39.8116 19.5446 38.9316 16.8313 38.9316C14.9246 38.9316 13.4213 39.4449 12.3213 40.4716C11.2946 41.4249 10.7813 42.8916 10.7813 44.8716ZM55.5392 81.9416C51.2859 81.9416 47.6559 80.9516 44.6492 78.9716C41.6426 76.9916 39.3326 74.3882 37.7192 71.1616C36.1792 67.9349 35.4092 64.4882 35.4092 60.8216C35.4092 56.4949 36.4359 52.5349 38.4892 48.9416C40.5426 45.2749 43.3292 42.4149 46.8492 40.3616C50.4426 38.2349 54.3659 37.1716 58.6192 37.1716C62.7259 37.1716 65.8792 38.2716 68.0792 40.4716C70.2792 42.6716 71.3792 45.7516 71.3792 49.7116C71.3792 50.7382 71.2692 51.4716 71.0492 51.9116C70.9026 52.3516 70.5726 52.5716 70.0592 52.5716H63.8992L64.0092 50.5916C64.0092 46.9249 63.2026 44.1382 61.5892 42.2316C59.9759 40.3249 57.7759 39.3716 54.9892 39.3716C51.1026 39.3716 48.0592 40.9116 45.8592 43.9916C43.7326 47.0716 42.6692 51.2882 42.6692 56.6416C42.6692 63.0216 44.1726 68.1916 47.1792 72.1516C50.1859 76.1116 54.4026 78.0916 59.8292 78.0916C62.0292 78.0916 63.8992 77.7982 65.4392 77.2116C67.0526 76.6249 68.8492 75.7082 70.8292 74.4616H70.9392C71.1592 74.4616 71.3426 74.6082 71.4892 74.9016C71.7092 75.1216 71.7459 75.3416 71.5992 75.5616C66.6126 79.8149 61.2592 81.9416 55.5392 81.9416ZM40.5792 51.2516L65.5492 50.8116V52.5716L40.6892 52.6816L40.5792 51.2516ZM91.5316 81.9416C88.4516 81.9416 85.9216 81.2449 83.9416 79.8516C81.9616 78.4582 80.9716 76.1482 80.9716 72.9216V47.0716C80.9716 45.1649 80.8249 43.8082 80.5316 43.0016C80.3116 42.1949 79.8349 41.6816 79.1016 41.4616C78.3682 41.1682 77.1216 41.0216 75.3616 41.0216C75.0682 41.0216 74.9216 40.8016 74.9216 40.3616C74.9216 39.8482 75.0682 39.5916 75.3616 39.5916C78.2949 39.5182 80.6782 38.7482 82.5116 37.2816C84.3449 35.7416 85.4082 33.7249 85.7016 31.2316C85.7016 31.0116 85.9949 30.9016 86.5816 30.9016C87.0949 30.9016 87.3516 31.0116 87.3516 31.2316V69.1816C87.3516 75.1216 90.2482 78.0916 96.0416 78.0916C99.4149 78.0916 102.348 77.0649 104.842 75.0116L105.062 74.9016C105.355 74.9016 105.575 75.0849 105.722 75.4516C105.868 75.7449 105.832 75.9649 105.612 76.1116C102.898 78.2382 100.442 79.7416 98.2416 80.6216C96.1149 81.5016 93.8782 81.9416 91.5316 81.9416ZM102.202 43.5516C97.5082 42.3782 91.9349 41.7916 85.4816 41.7916V39.3716C90.1016 39.3716 95.8216 39.0049 102.642 38.2716C102.788 38.2716 102.935 38.5649 103.082 39.1516C103.302 39.6649 103.412 40.2516 103.412 40.9116C103.412 41.4982 103.265 42.1216 102.972 42.7816C102.752 43.3682 102.495 43.6249 102.202 43.5516ZM123.2 81.9416C120.12 81.9416 117.59 81.2449 115.61 79.8516C113.63 78.4582 112.64 76.1482 112.64 72.9216V47.0716C112.64 45.1649 112.493 43.8082 112.2 43.0016C111.98 42.1949 111.503 41.6816 110.77 41.4616C110.036 41.1682 108.79 41.0216 107.03 41.0216C106.736 41.0216 106.59 40.8016 106.59 40.3616C106.59 39.8482 106.736 39.5916 107.03 39.5916C109.963 39.5182 112.346 38.7482 114.18 37.2816C116.013 35.7416 117.076 33.7249 117.37 31.2316C117.37 31.0116 117.663 30.9016 118.25 30.9016C118.763 30.9016 119.02 31.0116 119.02 31.2316V69.1816C119.02 75.1216 121.916 78.0916 127.71 78.0916C131.083 78.0916 134.016 77.0649 136.51 75.0116L136.73 74.9016C137.023 74.9016 137.243 75.0849 137.39 75.4516C137.536 75.7449 137.5 75.9649 137.28 76.1116C134.566 78.2382 132.11 79.7416 129.91 80.6216C127.783 81.5016 125.546 81.9416 123.2 81.9416ZM133.87 43.5516C129.176 42.3782 123.603 41.7916 117.15 41.7916V39.3716C121.77 39.3716 127.49 39.0049 134.31 38.2716C134.456 38.2716 134.603 38.5649 134.75 39.1516C134.97 39.6649 135.08 40.2516 135.08 40.9116C135.08 41.4982 134.933 42.1216 134.64 42.7816C134.42 43.3682 134.163 43.6249 133.87 43.5516ZM138.588 80.6216C138.368 80.6216 138.258 80.4016 138.258 79.9616C138.258 79.5216 138.368 79.3016 138.588 79.3016C140.568 79.3016 142.034 79.1182 142.988 78.7516C143.941 78.3116 144.601 77.5782 144.968 76.5516C145.334 75.4516 145.518 73.8382 145.518 71.7116V14.8416C145.518 12.2016 145.261 10.2949 144.748 9.12158C144.234 7.94825 143.318 7.36158 141.998 7.36158C140.898 7.36158 139.211 7.87491 136.938 8.90158H136.718C136.498 8.90158 136.314 8.71825 136.168 8.35158C136.094 7.98491 136.168 7.76491 136.388 7.69158L150.468 0.981578C150.614 0.908246 150.798 0.871579 151.018 0.871579C151.238 0.871579 151.458 0.981578 151.678 1.20158C151.898 1.34824 152.008 1.53158 152.008 1.75158V71.7116C152.008 73.8382 152.154 75.4149 152.448 76.4416C152.814 77.4682 153.474 78.2016 154.428 78.6416C155.381 79.0816 156.848 79.3016 158.828 79.3016C159.048 79.3016 159.158 79.5216 159.158 79.9616C159.158 80.4016 159.048 80.6216 158.828 80.6216C157.214 80.6216 155.894 80.5849 154.868 80.5116L148.707 80.4016L142.768 80.5116C141.741 80.5849 140.348 80.6216 138.588 80.6216ZM181.137 81.9416C176.884 81.9416 173.254 80.9516 170.247 78.9716C167.24 76.9916 164.93 74.3882 163.317 71.1616C161.777 67.9349 161.007 64.4882 161.007 60.8216C161.007 56.4949 162.034 52.5349 164.087 48.9416C166.14 45.2749 168.927 42.4149 172.447 40.3616C176.04 38.2349 179.964 37.1716 184.217 37.1716C188.324 37.1716 191.477 38.2716 193.677 40.4716C195.877 42.6716 196.977 45.7516 196.977 49.7116C196.977 50.7382 196.867 51.4716 196.647 51.9116C196.5 52.3516 196.17 52.5716 195.657 52.5716H189.497L189.607 50.5916C189.607 46.9249 188.8 44.1382 187.187 42.2316C185.574 40.3249 183.374 39.3716 180.587 39.3716C176.7 39.3716 173.657 40.9116 171.457 43.9916C169.33 47.0716 168.267 51.2882 168.267 56.6416C168.267 63.0216 169.77 68.1916 172.777 72.1516C175.784 76.1116 180 78.0916 185.427 78.0916C187.627 78.0916 189.497 77.7982 191.037 77.2116C192.65 76.6249 194.447 75.7082 196.427 74.4616H196.537C196.757 74.4616 196.94 74.6082 197.087 74.9016C197.307 75.1216 197.344 75.3416 197.197 75.5616C192.21 79.8149 186.857 81.9416 181.137 81.9416ZM166.177 51.2516L191.147 50.8116V52.5716L166.287 52.6816L166.177 51.2516ZM207.449 44.8716C207.449 47.4382 208.293 49.4916 209.979 51.0316C211.666 52.4982 214.159 54.0749 217.459 55.7616C220.026 57.0816 222.006 58.2182 223.399 59.1716C224.866 60.1249 226.113 61.3716 227.139 62.9116C228.166 64.4516 228.679 66.3216 228.679 68.5216C228.679 72.2616 227.286 75.4149 224.499 77.9816C221.713 80.5482 217.936 81.8316 213.169 81.8316C209.283 81.8316 205.763 80.7316 202.609 78.5316C202.169 78.2382 201.949 77.7982 201.949 77.2116L201.729 68.6316C201.729 68.4116 201.913 68.3016 202.279 68.3016C202.719 68.2282 202.976 68.3016 203.049 68.5216C204.443 72.2616 206.239 75.0849 208.439 76.9916C210.713 78.8249 213.316 79.7416 216.249 79.7416C218.523 79.7416 220.283 79.2282 221.529 78.2016C222.849 77.1016 223.509 75.4882 223.509 73.3616C223.509 71.3082 223.033 69.5849 222.079 68.1916C221.199 66.7249 220.099 65.5882 218.779 64.7816C217.459 63.9016 215.663 62.8749 213.389 61.7016C210.969 60.5282 209.026 59.4649 207.559 58.5116C206.166 57.5582 204.956 56.3116 203.929 54.7716C202.976 53.2316 202.499 51.3249 202.499 49.0516C202.499 45.0916 203.966 42.0849 206.899 40.0316C209.906 37.9049 213.426 36.8416 217.459 36.8416C220.393 36.8416 223.069 37.3916 225.489 38.4916C225.929 38.6382 226.186 38.8216 226.259 39.0416C226.406 39.1882 226.479 39.4082 226.479 39.7016C226.479 41.1682 226.443 42.3049 226.369 43.1116L226.259 47.7316C226.259 47.8782 226.039 47.9516 225.599 47.9516C225.159 47.9516 224.939 47.8782 224.939 47.7316C224.939 45.3849 223.693 43.3316 221.199 41.5716C218.779 39.8116 216.213 38.9316 213.499 38.9316C211.593 38.9316 210.089 39.4449 208.989 40.4716C207.963 41.4249 207.449 42.8916 207.449 44.8716ZM254.098 34.9266H261.508V40.3416C263.345 38.1249 265.467 36.4149 267.873 35.2116C270.343 34.0082 273.193 33.4066 276.423 33.4066C281.553 33.4066 285.638 34.9582 288.678 38.0616C291.718 41.1016 293.238 45.3132 293.238 50.6966V80.6216H285.828V52.5966C285.828 44.1732 282.25 39.9616 275.093 39.9616C270.913 39.9616 267.588 41.3866 265.118 44.2366C262.712 47.0866 261.508 50.9816 261.508 55.9216V80.6216H254.098V34.9266ZM340.278 80.7166H334.103C332.457 80.7166 331.158 80.1149 330.208 78.9116C329.258 77.7082 328.783 76.3149 328.783 74.7316C327.2 77.2649 325.173 79.1332 322.703 80.3366C320.297 81.4766 317.637 82.0466 314.723 82.0466C312.633 82.0466 310.638 81.7299 308.738 81.0966C306.902 80.5266 305.255 79.6716 303.798 78.5316C302.405 77.3916 301.265 75.9666 300.378 74.2566C299.555 72.5466 299.143 70.5516 299.143 68.2716C299.143 65.8016 299.618 63.7432 300.568 62.0966C301.582 60.3866 302.88 58.9616 304.463 57.8216C306.11 56.6182 307.978 55.6682 310.068 54.9716C312.158 54.2749 314.28 53.7049 316.433 53.2616C318.65 52.8182 320.835 52.4699 322.988 52.2166C325.142 51.9632 327.073 51.7099 328.783 51.4566C328.783 47.7832 327.992 44.9966 326.408 43.0966C324.825 41.1332 322.133 40.1516 318.333 40.1516C315.293 40.1516 312.918 40.8166 311.208 42.1466C309.562 43.4766 308.485 45.6616 307.978 48.7016L300.473 47.7516C301.17 42.8749 303.102 39.2649 306.268 36.9216C309.498 34.5782 313.488 33.4066 318.238 33.4066C320.835 33.4066 323.21 33.7549 325.363 34.4516C327.58 35.1482 329.48 36.1932 331.063 37.5866C332.647 38.9166 333.882 40.6266 334.768 42.7166C335.655 44.7432 336.098 47.1182 336.098 49.8416V69.8866C336.098 70.5199 336.098 71.1216 336.098 71.6916C336.162 72.1982 336.32 72.6732 336.573 73.1166C336.89 73.4966 337.333 73.8132 337.903 74.0666C338.473 74.2566 339.265 74.3516 340.278 74.3516V80.7166ZM328.783 57.3466L317.003 59.3416C315.863 59.5316 314.66 59.8166 313.393 60.1966C312.19 60.5132 311.082 60.9882 310.068 61.6216C309.055 62.1916 308.2 62.9516 307.503 63.9016C306.87 64.8516 306.553 66.0549 306.553 67.5116C306.553 68.8416 306.838 70.0132 307.408 71.0266C307.978 71.9766 308.707 72.7999 309.593 73.4966C310.543 74.1299 311.588 74.6049 312.728 74.9216C313.932 75.2382 315.135 75.3966 316.338 75.3966C318.302 75.3966 320.043 75.0166 321.563 74.2566C323.147 73.4332 324.445 72.3566 325.458 71.0266C326.535 69.6332 327.358 68.0499 327.928 66.2766C328.498 64.5032 328.783 62.6349 328.783 60.6716V57.3466ZM341.295 41.4816V34.8316H350.035V18.7766H357.445V34.8316H373.405V41.4816H357.445V66.1816C357.445 68.8416 357.952 70.7732 358.965 71.9766C359.978 73.1799 361.657 73.7816 364 73.7816H373.025V80.6216H360.58C358.87 80.6216 357.35 80.2416 356.02 79.4816C354.753 78.7216 353.677 77.7082 352.79 76.4416C351.903 75.1749 351.207 73.6866 350.7 71.9766C350.257 70.2032 350.035 68.3349 350.035 66.3716V41.4816H341.295ZM381.649 34.9266H389.249V80.6216H381.649V34.9266ZM381.459 21.3416H389.249V29.2266H381.459V21.3416ZM397.663 34.9266H405.643L420.463 71.7866L435.188 34.9266H443.073L424.833 80.6216H416.093L397.663 34.9266ZM488.616 53.9266V58.9616H452.801C453.117 63.9649 454.764 67.9549 457.741 70.9316C460.781 73.9082 464.897 75.3966 470.091 75.3966C471.547 75.3966 472.814 75.2699 473.891 75.0166C475.031 74.7632 476.044 74.3516 476.931 73.7816C477.817 73.2116 478.641 72.4832 479.401 71.5966C480.161 70.7099 480.921 69.6649 481.681 68.4616L488.996 70.6466C486.652 74.6366 484.024 77.6132 481.111 79.5766C478.197 81.4766 474.429 82.4266 469.806 82.4266C466.069 82.4266 462.681 81.8249 459.641 80.6216C456.664 79.3549 454.099 77.6449 451.946 75.4916C449.856 73.3382 448.241 70.7732 447.101 67.7966C445.961 64.7566 445.391 61.4949 445.391 58.0116C445.391 54.5282 445.929 51.2982 447.006 48.3216C448.146 45.3449 449.697 42.7482 451.661 40.5316C453.687 38.3149 456.094 36.5732 458.881 35.3066C461.667 34.0399 464.739 33.4066 468.096 33.4066C471.199 33.4066 473.986 33.9449 476.456 35.0216C478.989 36.0982 481.142 37.5549 482.916 39.3916C484.752 41.2282 486.146 43.4132 487.096 45.9466C488.109 48.4166 488.616 51.0766 488.616 53.9266ZM481.206 52.4066C481.079 48.8599 479.812 45.9466 477.406 43.6666C475.062 41.3866 471.959 40.2466 468.096 40.2466C464.296 40.2466 461.097 41.3549 458.501 43.5716C455.904 45.7882 454.131 48.7332 453.181 52.4066H481.206ZM495.569 14.1216H502.979V80.6216H495.569V14.1216ZM515.719 34.9266L529.969 73.7816L544.884 34.9266H552.579L527.689 97.1516C526.992 98.6082 526.327 99.7799 525.694 100.667C525.124 101.617 524.554 102.345 523.984 102.852C523.414 103.358 522.78 103.707 522.084 103.897C521.45 104.087 520.69 104.182 519.804 104.182H510.494V97.0566H514.484C515.94 97.0566 517.08 96.9616 517.904 96.7716C518.79 96.6449 519.519 96.3599 520.089 95.9166C520.659 95.4733 521.134 94.8082 521.514 93.9216C521.957 93.0982 522.4 92.0216 522.844 90.6916C523.54 88.6649 524.522 86.0049 525.789 82.7116L507.359 34.9266H515.719ZM588.609 81.9416C585.529 81.9416 582.999 81.2449 581.019 79.8516C579.039 78.4582 578.049 76.1482 578.049 72.9216V47.0716C578.049 45.1649 577.902 43.8082 577.609 43.0016C577.389 42.1949 576.912 41.6816 576.179 41.4616C575.445 41.1682 574.199 41.0216 572.439 41.0216C572.145 41.0216 571.999 40.8016 571.999 40.3616C571.999 39.8482 572.145 39.5916 572.439 39.5916C575.372 39.5182 577.755 38.7482 579.589 37.2816C581.422 35.7416 582.485 33.7249 582.779 31.2316C582.779 31.0116 583.072 30.9016 583.659 30.9016C584.172 30.9016 584.429 31.0116 584.429 31.2316V69.1816C584.429 75.1216 587.325 78.0916 593.119 78.0916C596.492 78.0916 599.425 77.0649 601.919 75.0116L602.139 74.9016C602.432 74.9016 602.652 75.0849 602.799 75.4516C602.945 75.7449 602.909 75.9649 602.689 76.1116C599.975 78.2382 597.519 79.7416 595.319 80.6216C593.192 81.5016 590.955 81.9416 588.609 81.9416ZM599.279 43.5516C594.585 42.3782 589.012 41.7916 582.559 41.7916V39.3716C587.179 39.3716 592.899 39.0049 599.719 38.2716C599.865 38.2716 600.012 38.5649 600.159 39.1516C600.379 39.6649 600.489 40.2516 600.489 40.9116C600.489 41.4982 600.342 42.1216 600.049 42.7816C599.829 43.3682 599.572 43.6249 599.279 43.5516ZM625.007 82.0516C620.753 82.0516 616.977 81.0249 613.677 78.9716C610.45 76.8449 607.957 74.0216 606.197 70.5016C604.437 66.9082 603.557 63.0216 603.557 58.8416C603.557 54.0749 604.693 50.0416 606.967 46.7416C609.313 43.3682 612.283 40.8749 615.877 39.2616C619.543 37.5749 623.247 36.7316 626.987 36.7316C631.313 36.7316 635.09 37.7949 638.317 39.9216C641.543 42.0482 644 44.8716 645.687 48.3916C647.447 51.8382 648.327 55.5049 648.327 59.3916C648.327 63.9382 647.263 67.9349 645.137 71.3816C643.01 74.7549 640.15 77.3949 636.557 79.3016C633.037 81.1349 629.187 82.0516 625.007 82.0516ZM628.197 79.9616C632.23 79.9616 635.347 78.5316 637.547 75.6716C639.747 72.8116 640.847 68.4116 640.847 62.4716C640.847 57.9249 640.077 53.8549 638.537 50.2616C637.07 46.6682 635.017 43.8816 632.377 41.9016C629.737 39.8482 626.73 38.8216 623.357 38.8216C619.397 38.8216 616.317 40.2516 614.117 43.1116C611.99 45.9716 610.927 50.0782 610.927 55.4316C610.927 59.9049 611.66 64.0116 613.127 67.7516C614.593 71.4916 616.647 74.4616 619.287 76.6616C621.927 78.8616 624.897 79.9616 628.197 79.9616ZM712.805 80.7166H706.63C704.983 80.7166 703.685 80.1149 702.735 78.9116C701.785 77.7082 701.31 76.3149 701.31 74.7316C699.726 77.2649 697.7 79.1332 695.23 80.3366C692.823 81.4766 690.163 82.0466 687.25 82.0466C685.16 82.0466 683.165 81.7299 681.265 81.0966C679.428 80.5266 677.781 79.6716 676.325 78.5316C674.931 77.3916 673.791 75.9666 672.905 74.2566C672.081 72.5466 671.67 70.5516 671.67 68.2716C671.67 65.8016 672.145 63.7432 673.095 62.0966C674.108 60.3866 675.406 58.9616 676.99 57.8216C678.636 56.6182 680.505 55.6682 682.595 54.9716C684.685 54.2749 686.806 53.7049 688.96 53.2616C691.176 52.8182 693.361 52.4699 695.515 52.2166C697.668 51.9632 699.6 51.7099 701.31 51.4566C701.31 47.7832 700.518 44.9966 698.935 43.0966C697.351 41.1332 694.66 40.1516 690.86 40.1516C687.82 40.1516 685.445 40.8166 683.735 42.1466C682.088 43.4766 681.011 45.6616 680.505 48.7016L673 47.7516C673.696 42.8749 675.628 39.2649 678.795 36.9216C682.025 34.5782 686.015 33.4066 690.765 33.4066C693.361 33.4066 695.736 33.7549 697.89 34.4516C700.106 35.1482 702.006 36.1932 703.59 37.5866C705.173 38.9166 706.408 40.6266 707.295 42.7166C708.181 44.7432 708.625 47.1182 708.625 49.8416V69.8866C708.625 70.5199 708.625 71.1216 708.625 71.6916C708.688 72.1982 708.846 72.6732 709.1 73.1166C709.416 73.4966 709.86 73.8132 710.43 74.0666C711 74.2566 711.791 74.3516 712.805 74.3516V80.7166ZM701.31 57.3466L689.53 59.3416C688.39 59.5316 687.186 59.8166 685.92 60.1966C684.716 60.5132 683.608 60.9882 682.595 61.6216C681.581 62.1916 680.726 62.9516 680.03 63.9016C679.396 64.8516 679.08 66.0549 679.08 67.5116C679.08 68.8416 679.365 70.0132 679.935 71.0266C680.505 71.9766 681.233 72.7999 682.12 73.4966C683.07 74.1299 684.115 74.6049 685.255 74.9216C686.458 75.2382 687.661 75.3966 688.865 75.3966C690.828 75.3966 692.57 75.0166 694.09 74.2566C695.673 73.4332 696.971 72.3566 697.985 71.0266C699.061 69.6332 699.885 68.0499 700.455 66.2766C701.025 64.5032 701.31 62.6349 701.31 60.6716V57.3466ZM717.97 34.9266H725.38V40.3416C727.216 38.1249 729.338 36.4149 731.745 35.2116C734.215 34.0082 737.065 33.4066 740.295 33.4066C745.425 33.4066 749.51 34.9582 752.55 38.0616C755.59 41.1016 757.11 45.3132 757.11 50.6966V80.6216H749.7V52.5966C749.7 44.1732 746.121 39.9616 738.965 39.9616C734.785 39.9616 731.46 41.3866 728.99 44.2366C726.583 47.0866 725.38 50.9816 725.38 55.9216V80.6216H717.97V34.9266ZM769.198 34.9266L783.448 73.7816L798.363 34.9266H806.058L781.168 97.1516C780.472 98.6082 779.807 99.7799 779.173 100.667C778.603 101.617 778.033 102.345 777.463 102.852C776.893 103.358 776.26 103.707 775.563 103.897C774.93 104.087 774.17 104.182 773.283 104.182H763.973V97.0566H767.963C769.42 97.0566 770.56 96.9616 771.383 96.7716C772.27 96.6449 772.998 96.3599 773.568 95.9166C774.138 95.4733 774.613 94.8082 774.993 93.9216C775.437 93.0982 775.88 92.0216 776.323 90.6916C777.02 88.6649 778.002 86.0049 779.268 82.7116L760.838 34.9266H769.198ZM849.959 82.1416C846.665 82.1416 843.625 81.5082 840.839 80.2416C838.115 78.9116 835.772 77.1382 833.809 74.9216C831.845 72.7049 830.325 70.1082 829.249 67.1316C828.172 64.1549 827.634 60.9882 827.634 57.6316C827.634 54.2749 828.14 51.1399 829.154 48.2266C830.23 45.2499 831.75 42.6532 833.714 40.4366C835.74 38.2199 838.179 36.4782 841.029 35.2116C843.879 33.8816 847.109 33.2166 850.719 33.2166C853.315 33.2166 855.722 33.5649 857.939 34.2616C860.219 34.9582 862.245 35.9716 864.019 37.3016C865.792 38.6316 867.28 40.2782 868.484 42.2416C869.687 44.1416 870.51 46.3266 870.954 48.7966H863.544C862.847 46.0099 861.39 43.8882 859.174 42.4316C856.957 40.9749 854.234 40.2466 851.004 40.2466C848.534 40.2466 846.285 40.6899 844.259 41.5766C842.232 42.4632 840.49 43.6666 839.034 45.1866C837.64 46.7066 836.532 48.5116 835.709 50.6016C834.949 52.6282 834.569 54.8132 834.569 57.1566C834.569 59.4366 834.949 61.6532 835.709 63.8066C836.469 65.9599 837.545 67.8916 838.939 69.6016C840.332 71.2482 842.01 72.5782 843.974 73.5916C846 74.5416 848.249 75.0166 850.719 75.0166C852.175 75.0166 853.6 74.8266 854.994 74.4466C856.387 74.0666 857.654 73.4966 858.794 72.7366C859.934 71.9766 860.915 71.0266 861.739 69.8866C862.562 68.7466 863.164 67.4166 863.544 65.8966H870.954C870.51 68.3666 869.624 70.6149 868.294 72.6416C867.027 74.6049 865.444 76.3149 863.544 77.7716C861.707 79.1649 859.617 80.2416 857.274 81.0016C854.93 81.7616 852.492 82.1416 849.959 82.1416ZM876.538 14.1216H883.948V39.8666C887.431 35.5599 892.308 33.4066 898.578 33.4066C904.088 33.4066 908.3 34.8949 911.213 37.8716C914.19 40.8482 915.678 45.1232 915.678 50.6966V80.6216H908.268V52.5966C908.268 44.1732 904.69 39.9616 897.533 39.9616C893.353 39.9616 890.028 41.3866 887.558 44.2366C885.151 47.0866 883.948 50.9816 883.948 55.9216V80.6216H876.538V14.1216ZM962.811 80.7166H956.636C954.989 80.7166 953.691 80.1149 952.741 78.9116C951.791 77.7082 951.316 76.3149 951.316 74.7316C949.732 77.2649 947.706 79.1332 945.236 80.3366C942.829 81.4766 940.169 82.0466 937.256 82.0466C935.166 82.0466 933.171 81.7299 931.271 81.0966C929.434 80.5266 927.787 79.6716 926.331 78.5316C924.937 77.3916 923.797 75.9666 922.911 74.2566C922.087 72.5466 921.676 70.5516 921.676 68.2716C921.676 65.8016 922.151 63.7432 923.101 62.0966C924.114 60.3866 925.412 58.9616 926.996 57.8216C928.642 56.6182 930.511 55.6682 932.601 54.9716C934.691 54.2749 936.812 53.7049 938.966 53.2616C941.182 52.8182 943.367 52.4699 945.521 52.2166C947.674 51.9632 949.606 51.7099 951.316 51.4566C951.316 47.7832 950.524 44.9966 948.941 43.0966C947.357 41.1332 944.666 40.1516 940.866 40.1516C937.826 40.1516 935.451 40.8166 933.741 42.1466C932.094 43.4766 931.017 45.6616 930.511 48.7016L923.006 47.7516C923.702 42.8749 925.634 39.2649 928.801 36.9216C932.031 34.5782 936.021 33.4066 940.771 33.4066C943.367 33.4066 945.742 33.7549 947.896 34.4516C950.112 35.1482 952.012 36.1932 953.596 37.5866C955.179 38.9166 956.414 40.6266 957.301 42.7166C958.187 44.7432 958.631 47.1182 958.631 49.8416V69.8866C958.631 70.5199 958.631 71.1216 958.631 71.6916C958.694 72.1982 958.852 72.6732 959.106 73.1166C959.422 73.4966 959.866 73.8132 960.436 74.0666C961.006 74.2566 961.797 74.3516 962.811 74.3516V80.7166ZM951.316 57.3466L939.536 59.3416C938.396 59.5316 937.192 59.8166 935.926 60.1966C934.722 60.5132 933.614 60.9882 932.601 61.6216C931.587 62.1916 930.732 62.9516 930.036 63.9016C929.402 64.8516 929.086 66.0549 929.086 67.5116C929.086 68.8416 929.371 70.0132 929.941 71.0266C930.511 71.9766 931.239 72.7999 932.126 73.4966C933.076 74.1299 934.121 74.6049 935.261 74.9216C936.464 75.2382 937.667 75.3966 938.871 75.3966C940.834 75.3966 942.576 75.0166 944.096 74.2566C945.679 73.4332 946.977 72.3566 947.991 71.0266C949.067 69.6332 949.891 68.0499 950.461 66.2766C951.031 64.5032 951.316 62.6349 951.316 60.6716V57.3466ZM969.038 34.9266H976.638V80.6216H969.038V34.9266ZM968.848 21.3416H976.638V29.2266H968.848V21.3416ZM984.656 34.9266H992.066V40.3416C993.903 38.1249 996.024 36.4149 998.431 35.2116C1000.9 34.0082 1003.75 33.4066 1006.98 33.4066C1012.11 33.4066 1016.2 34.9582 1019.24 38.0616C1022.28 41.1016 1023.8 45.3132 1023.8 50.6966V80.6216H1016.39V52.5966C1016.39 44.1732 1012.81 39.9616 1005.65 39.9616C1001.47 39.9616 998.146 41.3866 995.676 44.2366C993.269 47.0866 992.066 50.9816 992.066 55.9216V80.6216H984.656V34.9266ZM1034.08 81.6666C1032.81 81.6666 1031.8 81.2866 1031.04 80.5266C1030.28 79.7666 1029.9 78.7849 1029.9 77.5816C1029.9 76.3782 1030.28 75.4282 1031.04 74.7316C1031.8 73.9716 1032.81 73.5916 1034.08 73.5916C1035.41 73.5916 1036.42 73.9399 1037.12 74.6366C1037.82 75.3332 1038.16 76.3149 1038.16 77.5816C1038.16 78.8482 1037.82 79.8616 1037.12 80.6216C1036.42 81.3182 1035.41 81.6666 1034.08 81.6666Z" fill="white"/>
</g>
<defs>
<clipPath id="clip0_1089_59">
<rect width="1046" height="105" fill="white"/>
</clipPath>
</defs>
</svg>
